<?xml version="1.0" encoding="iso-8859-1"?>
<!-- Generator: Adobe Illustrator 19.0.0, SVG Export Plug-In . SVG Version: 6.00 Build 0)  -->
<svg version="1.1" id="Capa_1" xmlns="http://www.w3.org/2000/svg" xmlns:xlink="http://www.w3.org/1999/xlink" x="0px" y="0px"
	 viewBox="0 0 512 512" style="enable-background:new 0 0 512 512;" xml:space="preserve">
<g>
	<g>
		<g>
			<path d="M501.333,490.667h-10.667v-288c0-5.888-4.779-10.667-10.667-10.667H341.333V10.667C341.333,4.779,336.555,0,330.667,0H32
				c-5.888,0-10.667,4.779-10.667,10.667v480H10.667C4.779,490.667,0,495.445,0,501.333C0,507.221,4.779,512,10.667,512h490.667
				c5.888,0,10.667-4.779,10.667-10.667C512,495.445,507.221,490.667,501.333,490.667z M213.333,490.667h-64v-64h64V490.667z
				 M320,490.667h-85.333V416c0-5.888-4.779-10.667-10.667-10.667h-85.333c-5.888,0-10.667,4.779-10.667,10.667v74.667H42.667
				V21.333H320V490.667z M469.333,490.667h-128V213.333h128V490.667z"/>
			<path d="M96,149.333h64c5.888,0,10.667-4.779,10.667-10.667v-64C170.667,68.779,165.888,64,160,64H96
				c-5.888,0-10.667,4.779-10.667,10.667v64C85.333,144.555,90.112,149.333,96,149.333z M106.667,85.333h42.667V128h-42.667V85.333z
				"/>
			<path d="M202.667,149.333h64c5.888,0,10.667-4.779,10.667-10.667v-64c0-5.888-4.779-10.667-10.667-10.667h-64
				C196.779,64,192,68.779,192,74.667v64C192,144.555,196.779,149.333,202.667,149.333z M213.333,85.333H256V128h-42.667V85.333z"/>
			<path d="M96,256h64c5.888,0,10.667-4.779,10.667-10.667v-64c0-5.888-4.779-10.667-10.667-10.667H96
				c-5.888,0-10.667,4.779-10.667,10.667v64C85.333,251.221,90.112,256,96,256z M106.667,192h42.667v42.667h-42.667V192z"/>
			<path d="M202.667,256h64c5.888,0,10.667-4.779,10.667-10.667v-64c0-5.888-4.779-10.667-10.667-10.667h-64
				c-5.888,0-10.667,4.779-10.667,10.667v64C192,251.221,196.779,256,202.667,256z M213.333,192H256v42.667h-42.667V192z"/>
			<path d="M373.333,341.333h64c5.888,0,10.667-4.779,10.667-10.667v-64c0-5.888-4.779-10.667-10.667-10.667h-64
				c-5.888,0-10.667,4.779-10.667,10.667v64C362.667,336.555,367.445,341.333,373.333,341.333z M384,277.333h42.667V320H384V277.333
				z"/>
			<path d="M373.333,448h64c5.888,0,10.667-4.779,10.667-10.667v-64c0-5.888-4.779-10.667-10.667-10.667h-64
				c-5.888,0-10.667,4.779-10.667,10.667v64C362.667,443.221,367.445,448,373.333,448z M384,384h42.667v42.667H384V384z"/>
			<path d="M96,362.667h64c5.888,0,10.667-4.779,10.667-10.667v-64c0-5.888-4.779-10.667-10.667-10.667H96
				c-5.888,0-10.667,4.779-10.667,10.667v64C85.333,357.888,90.112,362.667,96,362.667z M106.667,298.667h42.667v42.667h-42.667
				V298.667z"/>
			<path d="M202.667,362.667h64c5.888,0,10.667-4.779,10.667-10.667v-64c0-5.888-4.779-10.667-10.667-10.667h-64
				c-5.888,0-10.667,4.779-10.667,10.667v64C192,357.888,196.779,362.667,202.667,362.667z M213.333,298.667H256v42.667h-42.667
				V298.667z"/>
		</g>
	</g>
</g>
<g>
</g>
<g>
</g>
<g>
</g>
<g>
</g>
<g>
</g>
<g>
</g>
<g>
</g>
<g>
</g>
<g>
</g>
<g>
</g>
<g>
</g>
<g>
</g>
<g>
</g>
<g>
</g>
<g>
</g>
</svg>
