<?xml version="1.0" encoding="iso-8859-1"?>
<!-- Generator: Adobe Illustrator 19.0.0, SVG Export Plug-In . SVG Version: 6.00 Build 0)  -->
<svg version="1.1" id="Capa_1" xmlns="http://www.w3.org/2000/svg" xmlns:xlink="http://www.w3.org/1999/xlink" x="0px" y="0px"
	 viewBox="0 0 512 512" style="enable-background:new 0 0 512 512; fill: hsla(180, 1%, 20%, 1);" xml:space="preserve">
<g>
	<g>
		<g>
			<path d="M505.963,212.436c-3.712-1.771-8.085-1.301-11.285,1.28l-89.344,71.488v-63.147c0-4.096-2.347-7.829-6.037-9.621
				c-3.733-1.771-8.085-1.301-11.285,1.28l-89.344,71.488v-63.147c0-3.989-2.219-7.616-5.739-9.451
				c-3.541-1.856-7.765-1.557-11.051,0.704l-93.653,65.344L158.357,73.129c-0.747-5.248-5.248-9.131-10.539-9.131H65.515
				c-5.269,0-9.749,3.861-10.539,9.067L0.128,435.732c-0.043,0.256,0.064,0.491,0.043,0.747C0.149,436.777,0,437.033,0,437.332v64
				c0,5.888,4.779,10.667,10.667,10.667h490.667c5.888,0,10.667-4.779,10.667-10.667v-64V222.057
				C512,217.961,509.653,214.228,505.963,212.436z M74.688,85.332h63.893l6.208,42.667H68.245L74.688,85.332z M65.003,149.332
				h82.859l6.229,42.667H58.56L65.003,149.332z M55.339,213.332h101.845l6.208,42.667H48.896L55.339,213.332z M490.667,490.665
				H21.333v-42.667h469.333V490.665z M490.667,426.665H23.083l22.571-149.333h120.832l3.136,21.525
				c0.533,3.648,2.923,6.763,6.315,8.256c3.413,1.472,7.317,1.088,10.347-1.045l91.051-63.552v64.896c0,4.096,2.347,7.829,6.037,9.6
				c3.712,1.771,8.085,1.301,11.285-1.28L384,244.265v63.125c0,4.096,2.347,7.829,6.037,9.6c3.712,1.771,8.085,1.301,11.285-1.28
				l89.344-71.445V426.665z"/>
			<path d="M160,341.332H96c-5.888,0-10.667,4.779-10.667,10.667v42.667c0,5.888,4.779,10.667,10.667,10.667h64
				c5.888,0,10.667-4.779,10.667-10.667v-42.667C170.667,346.11,165.888,341.332,160,341.332z M149.333,383.998h-42.667v-21.333
				h42.667V383.998z"/>
			<path d="M288,341.332h-64c-5.888,0-10.667,4.779-10.667,10.667v42.667c0,5.888,4.779,10.667,10.667,10.667h64
				c5.888,0,10.667-4.779,10.667-10.667v-42.667C298.667,346.11,293.888,341.332,288,341.332z M277.333,383.998h-42.667v-21.333
				h42.667V383.998z"/>
			<path d="M341.333,351.998v42.667c0,5.888,4.779,10.667,10.667,10.667h64c5.888,0,10.667-4.779,10.667-10.667v-42.667
				c0-5.888-4.779-10.667-10.667-10.667h-64C346.112,341.332,341.333,346.11,341.333,351.998z M362.667,362.665h42.667v21.333
				h-42.667V362.665z"/>
			<path d="M111.573,49.47c4.928,3.179,11.541,1.728,14.741-3.221c0.149-0.235,15.509-23.232,37.675-24.832
				c14.869-1.237,30.571,7.701,46.464,26.048c21.76,25.152,43.264,37.867,63.979,37.867c1.323,0,2.624-0.043,3.925-0.149
				c25.792-2.027,39.445-23.467,40.021-24.384c3.115-4.971,1.579-11.477-3.371-14.613c-4.907-3.136-11.499-1.664-14.677,3.264
				c-0.085,0.128-8.811,13.397-23.829,14.464c-14.635,1.067-31.808-9.493-49.92-30.4C206.037,9.812,184.448-1.431,162.453,0.148
				c-33.067,2.368-53.248,33.28-54.101,34.603C105.173,39.7,106.624,46.292,111.573,49.47z"/>
		</g>
	</g>
</g>
<g>
</g>
<g>
</g>
<g>
</g>
<g>
</g>
<g>
</g>
<g>
</g>
<g>
</g>
<g>
</g>
<g>
</g>
<g>
</g>
<g>
</g>
<g>
</g>
<g>
</g>
<g>
</g>
<g>
</g>
</svg>
