<?xml version="1.0" encoding="iso-8859-1"?>
<!-- Generator: Adobe Illustrator 19.0.0, SVG Export Plug-In . SVG Version: 6.00 Build 0)  -->
<svg version="1.1" id="Capa_1" xmlns="http://www.w3.org/2000/svg" xmlns:xlink="http://www.w3.org/1999/xlink" x="0px" y="0px"
	 viewBox="0 0 512 512" style="enable-background:new 0 0 512 512;" xml:space="preserve">
<g>
	<g>
		<g>
			<path d="M501.333,426.664h-10.667v-288c0-5.888-4.779-10.667-10.667-10.667h-53.333v-32c0-5.888-4.779-10.667-10.667-10.667h-64
				c-5.888,0-10.667,4.779-10.667,10.667v32H222.827l-66.261-61.163c-4.075-3.776-10.368-3.776-14.464,0l-138.667,128
				C1.259,196.84,0,199.677,0,202.664v64c0,4.245,2.496,8.064,6.4,9.771c1.365,0.597,2.837,0.896,4.267,0.896
				c2.624,0,5.227-0.96,7.232-2.837l3.435-3.179v155.349H10.667C4.779,426.664,0,431.443,0,437.331
				c0,5.888,4.779,10.667,10.667,10.667h490.667c5.888,0,10.667-4.779,10.667-10.667C512,431.443,507.221,426.664,501.333,426.664z
				 M362.667,106.664h42.667v21.333h-42.667V106.664z M170.667,426.664H128v-85.333h42.667V426.664z M256,426.664h-64v-96
				c0-5.888-4.779-10.667-10.667-10.667h-64c-5.888,0-10.667,4.779-10.667,10.667v96h-64V251.645l106.731-98.496L256,250.045
				V426.664z M469.333,426.664h-192V255.997h192V426.664z M469.333,234.664H270.784L156.501,130.771
				c-4.075-3.712-10.347-3.669-14.4,0.064L21.333,242.301v-34.965l128-118.144l96.768,89.323c4.309,4.011,11.093,3.733,15.061-0.597
				c4.011-4.331,3.733-11.093-0.597-15.083l-14.635-13.504h223.403V234.664z"/>
			<path d="M106.667,255.997c0,23.531,19.136,42.667,42.667,42.667c23.531,0,42.667-19.136,42.667-42.667
				s-19.136-42.667-42.667-42.667C125.803,213.331,106.667,232.467,106.667,255.997z M170.667,255.997
				c0,11.755-9.557,21.333-21.333,21.333S128,267.752,128,255.997c0-11.755,9.557-21.333,21.333-21.333
				S170.667,244.243,170.667,255.997z"/>
		</g>
	</g>
</g>
<g>
</g>
<g>
</g>
<g>
</g>
<g>
</g>
<g>
</g>
<g>
</g>
<g>
</g>
<g>
</g>
<g>
</g>
<g>
</g>
<g>
</g>
<g>
</g>
<g>
</g>
<g>
</g>
<g>
</g>
</svg>
