<?xml version="1.0" encoding="iso-8859-1"?>
<!-- Generator: Adobe Illustrator 19.0.0, SVG Export Plug-In . SVG Version: 6.00 Build 0)  -->
<svg version="1.1" id="Layer_1" xmlns="http://www.w3.org/2000/svg" xmlns:xlink="http://www.w3.org/1999/xlink" x="0px" y="0px"
	 viewBox="0 0 512 512" style="enable-background:new 0 0 512 512; fill: hsla(180, 1%, 20%, 1);" xml:space="preserve">
<g>
	<g>
		<path d="M483.447,49.955c-9.825,0-18.505,4.988-23.644,12.564h-84.328c-87.612,0-158.888,71.276-158.888,158.888v7.112
			c-8.051,5.055-13.417,14.007-13.417,24.195c0,10.19,5.368,19.143,13.423,24.198v30.114c0,16.748-9.294,32.046-23.713,39.965
			c-5.242-6.229-13.089-10.197-21.848-10.197c-8.76,0-16.608,3.969-21.85,10.2c-14.418-7.909-23.711-23.208-23.711-39.968v-29.36
			c8.755-4.883,14.693-14.234,14.693-24.952c0-10.717-5.938-20.068-14.693-24.952V88.551c8.755-4.883,14.693-14.235,14.693-24.952
			c0-15.745-12.808-28.553-28.552-28.553H28.552C12.808,35.046,0,47.856,0,63.599c0,9.639,4.805,18.171,12.141,23.343v142.426
			C4.805,234.542,0,243.075,0,252.713c0,9.638,4.805,18.171,12.141,23.343v30.967c0,78.7,57.75,145.441,135.065,157.091
			c5.114,7.729,13.881,12.84,23.824,12.84c9.941,0,18.708-5.109,23.824-12.839c77.314-11.657,135.067-78.4,135.067-157.092v-30.119
			c8.049-5.055,13.412-14.006,13.412-24.191c0-10.188-5.366-19.14-13.417-24.195v-7.112c0-25.122,20.437-45.559,45.559-45.559
			h83.266c4.946,8.522,14.165,14.268,24.707,14.268c15.745,0,28.553-12.808,28.553-28.553V78.507
			C512,62.763,499.192,49.955,483.447,49.955z M28.552,52.541h83.057c6.099,0,11.058,4.96,11.058,11.059
			c0,6.06-4.9,10.992-10.946,11.053H28.44c-6.046-0.061-10.946-4.993-10.946-11.053C17.494,57.502,22.455,52.541,28.552,52.541z
			 M107.975,92.152V224.16H29.635V92.152H107.975z M17.494,252.713c0-6.098,4.96-11.059,11.058-11.059h83.057
			c6.099,0,11.058,4.96,11.058,11.059c0,6.098-4.96,11.059-11.058,11.059H28.552C22.453,263.772,17.494,258.811,17.494,252.713z
			 M142.477,365.345v80.166C77.399,432.168,29.635,374.543,29.635,307.024v-25.757h78.339v25.757
			c0,23.88,13.627,45.611,34.586,56.249C142.512,363.958,142.477,364.647,142.477,365.345z M182.089,448.402
			c0,6.099-4.961,11.059-11.059,11.059s-11.058-4.96-11.058-11.059v-83.057c0-6.099,4.96-11.059,11.058-11.059
			s11.059,4.96,11.059,11.059V448.402z M312.425,307.024c0,67.512-47.764,125.138-112.842,138.486v-80.166
			c0-0.699-0.034-1.389-0.084-2.076c20.958-10.649,34.586-32.381,34.586-56.244v-25.757h78.34V307.024z M314.777,263.772h-83.056
			c-6.099,0-11.059-4.96-11.059-11.059c0-6.098,4.961-11.059,11.059-11.059h83.056c6.099,0,11.059,4.96,11.059,11.059
			C325.836,258.811,320.875,263.772,314.777,263.772z M454.894,158.353h-79.421c-34.767,0-63.053,28.286-63.053,63.054v2.752H234.08
			v-2.752c0-77.965,63.43-141.394,141.394-141.394h79.421V158.353z M494.506,161.564c0,6.099-4.961,11.059-11.059,11.059
			c-6.097,0-11.058-4.96-11.058-11.059V78.507c0-6.099,4.96-11.059,11.058-11.059c6.097,0,11.059,4.961,11.059,11.059V161.564z"/>
	</g>
</g>
<g>
</g>
<g>
</g>
<g>
</g>
<g>
</g>
<g>
</g>
<g>
</g>
<g>
</g>
<g>
</g>
<g>
</g>
<g>
</g>
<g>
</g>
<g>
</g>
<g>
</g>
<g>
</g>
<g>
</g>
</svg>
